M48
;Layer_Color=9474304
;FILE_FORMAT=2:5
INCH,LZ
;TYPE=PLATED
T1F00S00C0.02800
T2F00S00C0.03543
T3F00S00C0.03937
T4F00S00C0.04000
T5F00S00C0.04291
T6F00S00C0.05200
T7F00S00C0.11811
%
T01
X024Y03235
X0259191Y03397
X0326Y04085
X0314Y0427
X0327Y0444
X033Y0451
X0373Y0437488
X04245Y0434
X0438Y04155
X04345Y04855
Y0501949
X0414Y05055
X0403Y0494
X03025Y0502
X03075Y0469
X02655
X02615Y04765
T02
X02135Y03125
Y03225
X02245Y0378
X02345
Y0388
X02245
Y0398
X02345
Y0408
X02245
Y0418
X02345
Y0428
X02245
Y0438
X02345
Y0448
X02245
Y0458
X02345
Y0468
X02245
X02505Y0357
X02605
X0366Y0325
Y0315
X0516Y03155
Y03255
X04985Y0473
X04885
X0489Y0489
X0499
X04985Y05025
X04885
X02345Y0498
Y0488
Y0478
X02245
Y0488
Y0498
T03
X0386Y03145
Y03245
Y03345
Y03445
Y03545
Y03645
Y03745
Y03845
Y03945
Y04045
Y04145
Y04245
Y04345
Y04445
Y04545
X0486
Y04445
Y04345
Y04245
Y04145
Y04045
Y03945
Y03845
Y03745
Y03645
Y03545
Y03445
Y03345
Y03245
Y03145
T04
X03355Y03605
X03555
X03408Y0501
X03208
T05
X0262713Y0377291
Y0417291
Y0447291
X0302713
Y0417291
Y0377291
T06
X0218Y03475
X0233
T07
X03355Y0393
X0517Y04345
M30
