%FSLAX25Y25*%
%MOIN*%
G70*
G01*
G75*
G04 Layer_Color=16711935*
%ADD10O,0.05906X0.01772*%
%ADD11O,0.08661X0.02362*%
%ADD12R,0.07874X0.05118*%
%ADD13R,0.07874X0.07874*%
%ADD14R,0.06000X0.07000*%
%ADD15R,0.07087X0.06299*%
%ADD16R,0.06299X0.07087*%
%ADD17R,0.07000X0.06000*%
%ADD18C,0.03937*%
%ADD19C,0.01181*%
%ADD20C,0.00394*%
%ADD21C,0.01000*%
%ADD22C,0.06000*%
G04:AMPARAMS|DCode=23|XSize=100mil|YSize=100mil|CornerRadius=12.5mil|HoleSize=0mil|Usage=FLASHONLY|Rotation=90.000|XOffset=0mil|YOffset=0mil|HoleType=Round|Shape=RoundedRectangle|*
%AMROUNDEDRECTD23*
21,1,0.10000,0.07500,0,0,90.0*
21,1,0.07500,0.10000,0,0,90.0*
1,1,0.02500,0.03750,0.03750*
1,1,0.02500,0.03750,-0.03750*
1,1,0.02500,-0.03750,-0.03750*
1,1,0.02500,-0.03750,0.03750*
%
%ADD23ROUNDEDRECTD23*%
%ADD24C,0.10000*%
%ADD25C,0.05906*%
%ADD26R,0.05906X0.05906*%
%ADD27O,0.12598X0.06299*%
%ADD28R,0.12598X0.06299*%
%ADD29C,0.15748*%
%ADD30R,0.05906X0.05906*%
%ADD31C,0.05000*%
%ADD32O,0.06706X0.02572*%
%ADD33O,0.09461X0.03162*%
%ADD34R,0.08674X0.05918*%
%ADD35R,0.08674X0.08674*%
%ADD36R,0.06800X0.07800*%
%ADD37R,0.07887X0.07099*%
%ADD38R,0.07099X0.07887*%
%ADD39R,0.07800X0.06800*%
%ADD40C,0.06800*%
G04:AMPARAMS|DCode=41|XSize=108mil|YSize=108mil|CornerRadius=16.5mil|HoleSize=0mil|Usage=FLASHONLY|Rotation=90.000|XOffset=0mil|YOffset=0mil|HoleType=Round|Shape=RoundedRectangle|*
%AMROUNDEDRECTD41*
21,1,0.10800,0.07500,0,0,90.0*
21,1,0.07500,0.10800,0,0,90.0*
1,1,0.03300,0.03750,0.03750*
1,1,0.03300,0.03750,-0.03750*
1,1,0.03300,-0.03750,-0.03750*
1,1,0.03300,-0.03750,0.03750*
%
%ADD41ROUNDEDRECTD41*%
%ADD42C,0.10800*%
%ADD43C,0.06706*%
%ADD44R,0.06706X0.06706*%
%ADD45O,0.13398X0.07099*%
%ADD46R,0.13398X0.07099*%
%ADD47C,0.16548*%
%ADD48R,0.06706X0.06706*%
%ADD49C,0.05800*%
D18*
X165500Y300000D02*
Y516535D01*
X534646D01*
Y300000D02*
Y516535D01*
X165500Y300000D02*
X534646D01*
D39*
X290800Y381000D02*
D03*
X278200D02*
D03*
D40*
X340800Y501000D02*
D03*
X320800D02*
D03*
X335500Y360500D02*
D03*
X355500D02*
D03*
X262713Y447291D02*
D03*
Y417291D02*
D03*
Y377291D02*
D03*
X302713D02*
D03*
Y417291D02*
D03*
Y447291D02*
D03*
D41*
X233000Y347500D02*
D03*
D42*
X218000D02*
D03*
D43*
X234500Y378000D02*
D03*
X224500D02*
D03*
X234500Y388000D02*
D03*
X224500D02*
D03*
X234500Y398000D02*
D03*
X224500D02*
D03*
X234500Y408000D02*
D03*
X224500D02*
D03*
X234500Y418000D02*
D03*
X224500D02*
D03*
X234500Y428000D02*
D03*
X224500D02*
D03*
X234500Y438000D02*
D03*
X224500D02*
D03*
X234500Y448000D02*
D03*
X224500D02*
D03*
X234500Y458000D02*
D03*
X224500D02*
D03*
X234500Y468000D02*
D03*
X224500D02*
D03*
X234500Y478000D02*
D03*
X224500D02*
D03*
X234500Y488000D02*
D03*
X224500D02*
D03*
X234500Y498000D02*
D03*
X516000Y315500D02*
D03*
X498500Y473000D02*
D03*
X499000Y489000D02*
D03*
X498500Y502500D02*
D03*
X250500Y357000D02*
D03*
X213500Y322500D02*
D03*
X366000Y315000D02*
D03*
D44*
X224500Y498000D02*
D03*
X516000Y325500D02*
D03*
X213500Y312500D02*
D03*
X366000Y325000D02*
D03*
D45*
X486000Y314500D02*
D03*
Y324500D02*
D03*
Y334500D02*
D03*
Y344500D02*
D03*
Y354500D02*
D03*
Y364500D02*
D03*
Y374500D02*
D03*
Y384500D02*
D03*
Y394500D02*
D03*
Y404500D02*
D03*
Y414500D02*
D03*
Y424500D02*
D03*
Y434500D02*
D03*
Y444500D02*
D03*
Y454500D02*
D03*
X386000Y314500D02*
D03*
Y324500D02*
D03*
Y334500D02*
D03*
Y344500D02*
D03*
Y354500D02*
D03*
Y364500D02*
D03*
Y374500D02*
D03*
Y384500D02*
D03*
Y394500D02*
D03*
Y404500D02*
D03*
Y414500D02*
D03*
Y424500D02*
D03*
Y434500D02*
D03*
Y444500D02*
D03*
D46*
Y454500D02*
D03*
D47*
X517000Y434500D02*
D03*
X335500Y393000D02*
D03*
D48*
X488500Y473000D02*
D03*
X489000Y489000D02*
D03*
X488500Y502500D02*
D03*
X260500Y357000D02*
D03*
D49*
X438000Y415500D02*
D03*
X330000Y451000D02*
D03*
X424500Y434000D02*
D03*
X403000Y494000D02*
D03*
X302500Y502000D02*
D03*
X414000Y505500D02*
D03*
X307500Y469000D02*
D03*
X259191Y339700D02*
D03*
X240000Y323500D02*
D03*
X434500Y501949D02*
D03*
Y485500D02*
D03*
X261500Y476500D02*
D03*
X327000Y444000D02*
D03*
X265500Y469000D02*
D03*
X314000Y427000D02*
D03*
X326000Y408500D02*
D03*
X373000Y437488D02*
D03*
M02*
